# xmcd CD database file
#
# Track frame offsets:
#	150
#	12760
#	21040
#	36525
#	49007
#	58162
#	69700
#	77462
#	88515
#	100032
#	111842
#	120937
#	135017
#	142555
#	154297
#	162267
#
# Disc length: 2297 seconds
#
# Revision: 0
# Processed by: cddbd v1.5.1PL0 Copyright (c) Steve Scherf et al.
# Submitted via: CDex 1.51
#
DISCID=bc08f710
DTITLE=Jim Reeves - He'll Have To Go
DYEAR=1994
DGENRE=Jazz
TTITLE0=You're Old Love Letters
TTITLE1=Till The End Of The World
TTITLE2=Making Believe
TTITLE3=Four Walls
TTITLE4=According To My Heart
TTITLE5=Just Call Me Lonesome
TTITLE6=Blue Boy
TTITLE7=I Missed Me
TTITLE8=Am I Losing You
TTITLE9=I Love You More
TTITLE10=If You Were Only Mine
TTITLE11=How's The World Treating You
TTITLE12=I'm Beginning To Forget You
TTITLE13=If Heartaches Are The Fashion
TTITLE14=In A Mansion Stands My Love
TTITLE15=He'll Have To Go
EXTD=YEAR: 1994
EXTT0=
EXTT1=
EXTT2=
EXTT3=
EXTT4=
EXTT5=
EXTT6=
EXTT7=
EXTT8=
EXTT9=
EXTT10=
EXTT11=
EXTT12=
EXTT13=
EXTT14=
EXTT15=
PLAYORDER=
